<svg id="Icon_Set" enable-background="new 0 0 256 256" height="512" viewBox="0 0 256 256" width="512" xmlns="http://www.w3.org/2000/svg"><path d="m245.167 173.94h-234.334c-2.761 0-5-2.239-5-5v-9.381c0-2.761 2.239-5 5-5h234.333c2.761 0 5 2.239 5 5v9.381c.001 2.761-2.238 5-4.999 5z" fill="#b76c6c"/><path d="m204 234.94h-152c-2.761 0-5-2.239-5-5v-56h162v56c0 2.761-2.239 5-5 5z" fill="#b76c6c"/><path d="m109.072 115.35h37.854v24.466h-37.854z" fill="#87828e"/><path d="m189.078 115.35h-122.156c-5.523 0-10-4.477-10-10v-74.7c0-5.523 4.477-10 10-10h122.156c5.523 0 10 4.477 10 10v74.7c0 5.523-4.477 10-10 10z" fill="#87828e"/><path d="m40 154.559-28-.15v-34.179c0-2.761 2.239-5 5-5h18c2.761 0 5 2.239 5 5z" fill="#3193f3"/><path d="m228.745 154.558h-14.275v-53c0-2.761 2.239-5 5-5h4.275c2.761 0 5 2.239 5 5z" fill="#f9d335"/><path d="m244.079 154.558h-15.333v-63.666c0-2.761 2.239-5 5-5h5.333c2.761 0 5 2.239 5 5z" fill="#ff4a73"/><path d="m199.078 154.562h-142.156v-9.744c0-2.761 2.239-5 5-5h132.156c2.761 0 5 2.239 5 5z" fill="#87828e"/><path d="m184.25 221.44h-112.5c-2.761 0-5-2.239-5-5v-24c0-2.761 2.239-5 5-5h112.5c2.761 0 5 2.239 5 5v24c0 2.761-2.239 5-5 5z" fill="#b76c6c"/><path d="m178.446 100.999h-100.892c-2.761 0-5-2.239-5-5v-55.997c0-2.761 2.239-5 5-5h100.892c2.761 0 5 2.239 5 5v55.997c0 2.761-2.238 5-5 5z" fill="#5fcdff"/><path d="m189.25 192.441v24c0 2.76-2.24 5-5 5h-15c2.76 0 5-2.24 5-5v-24c0-2.76-2.24-5-5-5h15c2.76 0 5 2.24 5 5z" fill="#965959"/><path d="m86.75 221.441h-15c-2.76 0-5-2.24-5-5v-24c0-2.76 2.24-5 5-5h15c-2.76 0-5 2.24-5 5v24c0 2.76 2.24 5 5 5z" fill="#c98585"/><path d="m209 173.941v56c0 2.76-2.24 5-5 5h-15c2.76 0 5-2.24 5-5v-56z" fill="#965959"/><path d="m67 234.941h-15c-2.76 0-5-2.24-5-5v-56h15v56c0 2.76 2.24 5 5 5z" fill="#c98585"/><path d="m250.17 159.561v9.38c0 2.76-2.24 5-5 5h-15c2.76 0 5-2.24 5-5v-9.38c0-2.76-2.24-5-5-5h15c2.76 0 5 2.24 5 5z" fill="#965959"/><path d="m25.83 173.941h-15c-2.76 0-5-2.24-5-5v-9.38c0-2.76 2.24-5 5-5h15c-2.76 0-5 2.24-5 5v9.38c0 2.76 2.24 5 5 5z" fill="#c98585"/><path d="m32 115.231c-2.76 0-5 2.24-5 5v34.327l-15-.147v-34.18c0-2.76 2.24-5 5-5z" fill="#35b1fc"/><path d="m199.08 144.821v9.74h-15v-9.74c0-2.76-2.24-5-5-5h15c2.76 0 5 2.24 5 5z" fill="#796e84"/><path d="m76.92 139.821c-2.76 0-5 2.24-5 5v9.74h-15v-9.74c0-2.76 2.24-5 5-5z" fill="#a4a4a5"/><path d="m131.93 115.349h15v24.47h-15z" fill="#796e84"/><path d="m109.07 115.349h15v24.47h-15z" fill="#a4a4a5"/><path d="m199.08 30.649v74.7c0 5.52-4.48 10-10 10h-15c5.52 0 10-4.48 10-10v-74.7c0-5.52-4.48-10-10-10h15c5.52 0 10 4.48 10 10z" fill="#796e84"/><path d="m81.92 115.349h-15c-5.52 0-10-4.48-10-10v-74.7c0-5.52 4.48-10 10-10h15c-5.52 0-10 4.48-10 10v74.7c0 5.52 4.48 10 10 10z" fill="#a4a4a5"/><path d="m183.45 39.999v56c0 2.76-2.24 5-5 5h-15c2.76 0 5-2.24 5-5v-56c0-2.76-2.24-5-5-5h15c2.76 0 5 2.24 5 5z" fill="#30b6ff"/><path d="m92.55 100.999h-15c-2.76 0-5-2.24-5-5v-56c0-2.76 2.24-5 5-5h15c-2.76 0-5 2.24-5 5v56c0 2.76 2.24 5 5 5z" fill="#73d7f9"/><g fill="#5f266d"><path d="m248.08 151.255v-60.16c0-4.96-4.04-9-9-9h-5.33c-4.97 0-9 4.04-9 9v1.73c-.77-.093-1.144-.06-5.28-.06-4.96 0-9 4.03-9 9v49h-7.39v-5.74c0-4.96-4.04-9-9-9h-43.15v-16.47h38.15c7.72 0 14-6.28 14-14v-74.7c0-7.72-6.28-14-14-14h-122.16c-7.72 0-14 6.28-14 14v74.7c0 7.72 6.28 14 14 14h38.15v16.47h-43.15c-4.96 0-9 4.04-9 9v5.74h-8.92v-30.33c0-4.96-4.04-9-9-9h-.09l8.99-19.87c.45-1.01.01-2.2-1-2.65l-1.82-.83c-1.01-.45-2.19 0-2.65 1l-8.33 18.41-6.57-18.9c-.37-1.04-1.51-1.59-2.55-1.23l-1.89.66c-1.04.36-1.59 1.5-1.23 2.54l7.26 20.87h-1.5l-9.53-22.5c-.43-1.01-1.6-1.49-2.62-1.06l-1.84.78c-1.02.43-1.5 1.61-1.06 2.62l8.54 20.16h-.11c-4.96 0-9 4.04-9 9v30.79c-3.58 1.18-6.17 4.56-6.17 8.54v9.38c0 4.96 4.04 9 9 9h32.17v52c0 4.96 4.04 9 9 9h152c4.96 0 9-4.04 9-9v-52h32.17c4.96 0 9-4.04 9-9v-9.38c0-3.95-2.55-7.31-6.09-8.51zm-15.33-60.16c0-.55.44-1 1-1h5.33c.55 0 1 .45 1 1v59.67h-7.33v-49zm-14.28 10.67c0-.55.45-1 1-1h4.28c.55 0 1 .45 1 1v49h-6.28zm-157.55 3.79v-74.7c0-3.31 2.69-6 6-6h122.16c3.31 0 6 2.69 6 6v74.7c0 3.31-2.69 6-6 6-4.616 0-116.427 0-122.16 0-3.31 0-6-2.69-6-6zm52.15 14h29.86v16.47h-29.86zm-52.15 25.47c0-.55.45-1 1-1h132.16c.55 0 1 .45 1 1v5.74h-134.16zm-44.92-24.59c0-.55.45-1 1-1h18c.55 0 1 .45 1 1v30.18h-20zm189 109.71c0 .55-.45 1-1 1h-152c-.55 0-1-.45-1-1v-52h154zm41.17-61c0 .55-.45 1-1 1-12.612 0-225.131 0-234.34 0-.55 0-1-.45-1-1v-9.38c0-.55.45-1 1-1h234.34c.55 0 1 .45 1 1z"/><path d="m71.75 225.645h112.5c4.96 0 9-4.04 9-9v-24c0-4.96-4.04-9-9-9h-112.5c-4.96 0-9 4.04-9 9v24c0 4.96 4.04 9 9 9zm-1-33c0-.55.45-1 1-1h112.5c.55 0 1 .45 1 1v24c0 .55-.45 1-1 1h-112.5c-.55 0-1-.45-1-1z"/><path d="m112.29 208.645h31.42c5.285 0 5.293-8 0-8h-31.42c-5.285 0-5.293 8 0 8z"/><path d="m116.79 83.375h-3.65c-5.288 0-5.285 8 0 8h3.65c5.288 0 5.285-8 0-8z"/><path d="m98.14 83.375h-5.64c-.55 0-1-.45-1-1v-17.5c0-5.285-8-5.293-8 0v17.5c0 4.96 4.04 9 9 9h5.64c5.285 0 5.293-8 0-8z"/><path d="m187.45 96.205v-56c0-4.96-4.04-9-9-9h-100.9c-4.96 0-9 4.04-9 9v56c0 4.96 4.04 9 9 9h100.9c4.96 0 9-4.04 9-9zm-110.9 0v-56c0-.55.45-1 1-1h100.9c.55 0 1 .45 1 1v56c0 .55-.45 1-1 1h-100.9c-.55 0-1-.45-1-1z"/></g></svg>