<svg xmlns="http://www.w3.org/2000/svg" viewBox="0 0 1133 596.5">
<defs>
<style>
.cls-1,.cls-5{fill:#512b38;}
.cls-2{fill:#63b29d;}
.cls-3{fill:#fef5ee;}
.cls-4{fill:#e50303;}
.cls-5{stroke:#000;stroke-width:7px;}
.cls-5,.cls-7,.cls-8{stroke-linecap:round;stroke-miterlimit:10;}
.cls-6{fill:#dd414e;}
.cls-7,.cls-8{fill:none;stroke-width:6px;}
.cls-7{stroke:#dd414e;}
.cls-8{stroke:#512b38;}
</style>
</defs>
<g id="Layer_2" data-name="Layer 2"><g id="Layer_1-2" data-name="Layer 1"><path class="cls-1" d="M16,93H259a16,16,0,0,1,16,16v69a16,16,0,0,1-16,16H102a16,16,0,0,0-16,16v59a16,16,0,0,0,16,16H212a16,16,0,0,1,16,16v62a16,16,0,0,1-16,16H101a16,16,0,0,0-16,16v73a16,16,0,0,0,16,16H259a16,16,0,0,1,16,16v77a16,16,0,0,1-16,16H16A16,16,0,0,1,0,577V109A16,16,0,0,1,16,93Z"/><path class="cls-2" d="M16.5,49.5h243a16,16,0,0,1,16,16v69a16,16,0,0,1-16,16h-157a16,16,0,0,0-16,16v59a16,16,0,0,0,16,16h110a16,16,0,0,1,16,16v62a16,16,0,0,1-16,16h-111a16,16,0,0,0-16,16v73a16,16,0,0,0,16,16h158a16,16,0,0,1,16,16v77a16,16,0,0,1-16,16H16.5a16,16,0,0,1-16-16V65.5a16,16,0,0,1,16-16Z"/><path class="cls-3" d="M16,0H259a16,16,0,0,1,16,16V85a16,16,0,0,1-16,16H102a16,16,0,0,0-16,16v59a16,16,0,0,0,16,16H212a16,16,0,0,1,16,16v62a16,16,0,0,1-16,16H101a16,16,0,0,0-16,16v73a16,16,0,0,0,16,16H259a16,16,0,0,1,16,16v77a16,16,0,0,1-16,16H16A16,16,0,0,1,0,484V16A16,16,0,0,1,16,0Z"/><path class="cls-1" d="M758,97h375v90.64a16.73,16.73,0,0,1-16.73,16.74h-91.54A16.73,16.73,0,0,0,1008,221.11V579.77a16.73,16.73,0,0,1-16.73,16.73H916.73A16.73,16.73,0,0,1,900,579.77V225a16.74,16.74,0,0,0-16.73-16.74H774.73A16.73,16.73,0,0,1,758,191.48Z"/><path class="cls-2" d="M758,62h375v90.64a16.73,16.73,0,0,1-16.73,16.74h-91.54A16.73,16.73,0,0,0,1008,186.11V544.77a16.73,16.73,0,0,1-16.73,16.73H916.73A16.73,16.73,0,0,1,900,544.77V190a16.74,16.74,0,0,0-16.73-16.74H774.73A16.73,16.73,0,0,1,758,156.48Z"/><path class="cls-3" d="M758,17h375v90.64a16.73,16.73,0,0,1-16.73,16.74h-91.54A16.73,16.73,0,0,0,1008,141.11V499.77a16.73,16.73,0,0,1-16.73,16.73H916.73A16.73,16.73,0,0,1,900,499.77V145a16.74,16.74,0,0,0-16.73-16.74H774.73A16.73,16.73,0,0,1,758,111.48Z"/><circle class="cls-4" cx="542" cy="439" r="48"/><rect class="cls-1" x="328.5" y="549.5" width="415" height="47" rx="12"/><rect class="cls-2" x="328.5" y="508.5" width="414" height="53"/><path class="cls-3" d="M329,498.09,514.5,26.1a13.84,13.84,0,0,1,25.61-.39l202.14,472A13.84,13.84,0,0,1,729.52,517H341.92A13.84,13.84,0,0,1,329,498.09Z"/><path class="cls-5" d="M545.5,340.5s9-15,18-15"/><circle class="cls-6" cx="535.5" cy="374.5" r="41"/><path class="cls-3" d="M63.43,499.55s10.45-1.08,10.45,8.65v35.66s0,8.64,10.36,8.64c8.65,0,11.88-6,12.71-8a3,3,0,0,0,.24-1.19V508.2s-1.54-8.69,11.31-8.69Z"/><path class="cls-3" d="M580.43,516.54s14.63-1.32,14.63,10.61v43.74s0,10.61,14.49,10.61c12.1,0,16.63-7.39,17.79-9.83a3.37,3.37,0,0,0,.33-1.45V527.15s-2.15-10.65,15.83-10.65Z"/><path class="cls-7" d="M46.5,76.78s17.77-16.45,21-13"/><path class="cls-8" d="M40.5,97.5c11,11,13,21,13,21"/></g></g></svg>
