<svg width="110" height="36" xmlns="http://www.w3.org/2000/svg"><path d="M56.739 1.038v2.844c0 .486.338.9.81 1.011 5.715 1.334 9.962 6.476 9.962 12.682 0 6.202-4.246 11.325-9.96 12.65a1.043 1.043 0 0 0-.812 1.013v2.886c0 .656.597 1.144 1.238 1.019 8.14-1.591 14.325-8.874 14.325-17.568 0-8.687-6.184-15.966-14.325-17.555a1.038 1.038 0 0 0-1.238 1.018M24.63 7.124c-4.835 0-8.838 3.988-8.838 8.884v10.926c0 .573.463 1.038 1.034 1.038h2.455c.571 0 1.033-.465 1.033-1.038V16.008c0-2.442 1.902-4.368 4.317-4.368 2.408 0 4.311 1.926 4.311 4.368v10.926c0 .573.463 1.038 1.034 1.038h2.414c.57 0 1.033-.465 1.033-1.038V16.008c0-4.896-3.952-8.884-8.792-8.884M37.153 17.71c0 8.685 6.184 15.967 14.318 17.557a1.037 1.037 0 0 0 1.238-1.019v-2.833a1.04 1.04 0 0 0-.811-1.012c-5.71-1.332-9.965-6.485-9.965-12.693 0-6.205 4.255-11.318 9.964-12.647a1.04 1.04 0 0 0 .812-1.01V1.17c0-.656-.598-1.144-1.239-1.019-8.133 1.593-14.317 8.873-14.317 17.558m62.119-5.694h1.404c.571 0 1.033.464 1.033 1.037v21.716c0 .572.463 1.036 1.033 1.036h2.396c.572 0 1.034-.464 1.034-1.036V13.052c0-.573.463-1.037 1.033-1.037h1.422c.571 0 1.034-.465 1.034-1.037V8.274c0-.573-.463-1.037-1.034-1.037h-9.355c-.57 0-1.034.464-1.034 1.037v2.704c0 .572.463 1.037 1.034 1.037M103.21.61l-3.267 3.306c-.646.654-.185 1.767.734 1.767h6.532c.918 0 1.38-1.113.733-1.768L104.677.61a1.03 1.03 0 0 0-1.468 0M10.39 23.025H8.985c-.57 0-1.033-.464-1.033-1.036V1.169C7.952.597 7.49.133 6.919.133H4.522c-.57 0-1.033.464-1.033 1.036v20.82c0 .572-.462 1.036-1.034 1.036H1.033c-.57 0-1.033.464-1.033 1.037v2.703c0 .573.462 1.038 1.033 1.038h9.357c.57 0 1.033-.465 1.033-1.038v-2.703c0-.573-.463-1.037-1.033-1.037M6.452 34.43l3.266-3.305c.646-.655.185-1.767-.733-1.767H2.452c-.918 0-1.38 1.112-.733 1.767l3.266 3.305a1.03 1.03 0 0 0 1.467 0m82.762-15.253c0 2.444-1.9 4.366-4.315 4.366-2.41 0-4.31-1.93-4.31-4.366V8.257c0-.573-.463-1.037-1.034-1.037H77.14c-.571 0-1.033.464-1.033 1.037v10.92c0 4.906 3.956 8.89 8.793 8.89 4.844 0 8.84-3.985 8.84-8.89V8.257c0-.573-.461-1.037-1.033-1.037h-2.458c-.571 0-1.034.464-1.034 1.037v10.92z" fill="#8166cd"/></svg>